<svg id="noun_Bus_2979599_1_" data-name="noun_Bus_2979599 (1)" xmlns="http://www.w3.org/2000/svg" width="13.876" height="11.758" viewBox="0 0 13.876 11.758">
    <defs>
        <style>
            .cls-1{fill:#ffc610}
        </style>
    </defs>
    <path id="Path_16464" data-name="Path 16464" class="cls-1" d="M1.8 32.1h-.23a.376.376 0 0 0-.37.37v1.536a.376.376 0 0 0 .37.37h.213a.376.376 0 0 0 .37-.37V32.47a.364.364 0 0 0-.353-.37z" transform="translate(-1.2 -28.929)"/>
    <path id="Path_16465" data-name="Path 16465" class="cls-1" d="M92.683 33.8h-.213a.376.376 0 0 0-.37.37v1.536a.376.376 0 0 0 .37.37h.213a.376.376 0 0 0 .37-.37V34.17a.367.367 0 0 0-.37-.37z" transform="translate(-79.176 -30.388)"/>
    <path id="Path_16466" data-name="Path 16466" class="cls-1" d="M20.27 10.312a20.667 20.667 0 0 0-9.142 0c-1.294.483-1.095 1.422-1.095 1.422V19.6a1.1 1.1 0 0 0 1.095 1.095h.128v.5a.376.376 0 0 0 .37.37h1.436a.376.376 0 0 0 .37-.37v-.5h4.55v.5a.376.376 0 0 0 .37.37h1.436a.376.376 0 0 0 .37-.37v-.5h.128a1.1 1.1 0 0 0 1.093-1.095v-7.881c-.014 0 .185-.919-1.109-1.407zm-5.7.427a.158.158 0 0 1 .156-.156h1.962a.158.158 0 0 1 .156.156v.427a.158.158 0 0 1-.156.156h-1.963a.158.158 0 0 1-.156-.156zm-1.507 7.72a.322.322 0 0 1-.327.327h-1.267a.322.322 0 0 1-.327-.327v-.682a.3.3 0 0 1 .128-.256.34.34 0 0 1 .284-.057l1.265.341a.333.333 0 0 1 .242.313zm-1.706-1.919a.194.194 0 0 1-.2-.2v-4a.194.194 0 0 1 .2-.2h8.659a.194.194 0 0 1 .2.2v4a.194.194 0 0 1-.2.2zm8.9 1.919a.322.322 0 0 1-.327.327h-1.266a.322.322 0 0 1-.327-.327v-.341a.333.333 0 0 1 .242-.313l1.265-.341a.34.34 0 0 1 .284.057.3.3 0 0 1 .128.256z" transform="translate(-8.768 -9.8)"/>
</svg>
