<svg xmlns="http://www.w3.org/2000/svg" width="10.132" height="9.856" viewBox="0 0 10.132 9.856">
    <path data-name="Icon awesome-calendar" d="M.271 3.7H9.86a.254.254 0 0 1 .271.231v5.001a1.015 1.015 0 0 1-1.086.924H1.086A1.015 1.015 0 0 1 0 8.932V3.927A.254.254 0 0 1 .271 3.7zm9.86-.847v-.697a1.015 1.015 0 0 0-1.086-.924H7.96v-1A.254.254 0 0 0 7.689 0h-.9a.254.254 0 0 0-.271.231v1h-2.9v-1A.254.254 0 0 0 3.347 0h-.9a.254.254 0 0 0-.271.231v1h-1.09A1.015 1.015 0 0 0 0 2.156v.693a.254.254 0 0 0 .271.231H9.86a.254.254 0 0 0 .272-.231z" style="fill:#00276c"/>
</svg>
