<svg xmlns="http://www.w3.org/2000/svg" width="14.695" height="11.165" viewBox="0 0 14.695 11.165">
    <g data-name="Group 15197">
        <path data-name="Path 16459" d="M43.181 141.081h7.23v1.261a.485.485 0 0 0 .483.483h1.839a.485.485 0 0 0 .483-.483v-5.217l-.187-.54h.823c.342 0 .288-.36.288-.36a.915.915 0 0 0-.89-.89h-.65l-.962-2.778a13.5 13.5 0 0 0-9.676 0L41 135.335h-.654a.915.915 0 0 0-.89.89s-.054.36.288.36h.823l-.187.54v5.217a.485.485 0 0 0 .483.483H42.7a.485.485 0 0 0 .483-.483zm.953-2.788h5.323v.989h-5.323zm-1.673-.414a.98.98 0 1 1-.98.98.98.98 0 0 1 .981-.98zm8.669 0a.98.98 0 1 1-.98.98.98.98 0 0 1 .981-.98zm.613-2.424-.787-2.271a13.087 13.087 0 0 0-8.321 0l-.787 2.271a16.606 16.606 0 0 0 9.895 0z" transform="translate(-39.449 -131.66)" style="fill:#ffc610;fill-rule:evenodd"/>
    </g>
</svg>
