<svg id="noun_cruise_1692527" xmlns="http://www.w3.org/2000/svg" width="11.174" height="11.914" viewBox="0 0 11.174 11.914">
    <defs>
        <style>
            .cls-1{fill:#ffc610}
        </style>
    </defs>
    <g id="Group_15202" data-name="Group 15202">
        <path id="Path_16460" data-name="Path 16460" class="cls-1" d="M16.565 32.366a.239.239 0 0 1 .238-.238 1.32 1.32 0 0 1 .8.253.864.864 0 0 0 .539.176.854.854 0 0 0 .539-.176 1.354 1.354 0 0 1 .558-.231L17.6 27.529a.238.238 0 0 1 .1-.286l4.211-2.412v7.316a1.72 1.72 0 0 1 .236-.019 1.427 1.427 0 0 1 .238.021v-7.32l4.208 2.414a.239.239 0 0 1 .107.286l-1.637 4.621a1.331 1.331 0 0 1 .553.231.867.867 0 0 0 .541.176.854.854 0 0 0 .539-.176 1.336 1.336 0 0 1 .8-.253.238.238 0 1 1 0 .477.855.855 0 0 0-.543.179 1.321 1.321 0 0 1-.8.25 1.345 1.345 0 0 1-.8-.25.841.841 0 0 0-.539-.179.369.369 0 0 0-.052 0 .073.073 0 0 1-.024 0 .769.769 0 0 0-.319.088 1.357 1.357 0 0 0-.145.086 1.494 1.494 0 0 1-.415.2 1.363 1.363 0 0 1-.384.05 1.326 1.326 0 0 1-.8-.253l-.029-.017c-.033-.021-.064-.041-.1-.06-.012-.007-.026-.012-.041-.019a.655.655 0 0 0-.1-.041.838.838 0 0 0-.267-.041.966.966 0 0 0-.241.029.751.751 0 0 0-.155.062h-.007a3.358 3.358 0 0 0-.141.086 1.493 1.493 0 0 1-.386.191 1.331 1.331 0 0 1-.41.06 1.257 1.257 0 0 1-.617-.145c-.067-.033-.124-.071-.179-.1l-.074-.045a.782.782 0 0 0-.391-.129.543.543 0 0 0-.076 0 .853.853 0 0 0-.541.179 1.391 1.391 0 0 1-1.592 0 .841.841 0 0 0-.528-.186.237.237 0 0 1-.235-.234z" transform="translate(-16.563 -22.487)"/>
        <path id="Path_16461" data-name="Path 16461" class="cls-1" d="M27.729 61.447a.239.239 0 0 1-.238.238.843.843 0 0 0-.541.176 1.4 1.4 0 0 1-1.6 0 .914.914 0 0 0-1.079 0 1.395 1.395 0 0 1-1.594 0 .84.84 0 0 0-.539-.176.852.852 0 0 0-.541.176 1.391 1.391 0 0 1-1.592 0 .852.852 0 0 0-.541-.176.84.84 0 0 0-.539.176 1.395 1.395 0 0 1-1.594 0 .853.853 0 0 0-.541-.176.238.238 0 0 1 0-.477 1.329 1.329 0 0 1 .8.25.84.84 0 0 0 .539.176.853.853 0 0 0 .541-.176 1.391 1.391 0 0 1 1.592 0 .853.853 0 0 0 .541.176.84.84 0 0 0 .539-.176 1.395 1.395 0 0 1 1.594 0 .914.914 0 0 0 1.079 0 1.395 1.395 0 0 1 1.594 0 .918.918 0 0 0 1.082 0 1.323 1.323 0 0 1 .8-.25.237.237 0 0 1 .238.239z" transform="translate(-16.555 -50.198)"/>
        <path id="Path_16462" data-name="Path 16462" class="cls-1" d="M29.309 16.864c.016-.009.034-.013.05-.021a.674.674 0 0 1 .121-.05.727.727 0 0 1 .077-.01.711.711 0 0 1 .107-.014.713.713 0 0 1 .358.1l2.878 1.642v-2.529a.239.239 0 0 0-.238-.238h-2.757v-.5a.238.238 0 1 0-.477 0v.5h-2.755a.239.239 0 0 0-.238.238v2.529l2.874-1.647z" transform="translate(-24.081 -15.001)"/>
    </g>
</svg>
