<svg xmlns="http://www.w3.org/2000/svg" width="11.773" height="11.773" viewBox="0 0 11.773 11.773">
    <g data-name="Group 15196">
        <path data-name="Path 16458" d="M5.908 0a5.906 5.906 0 0 1 1.811 11.514l-.086-1.639A4.87 4.87 0 0 0 8.97 8.97a4.375 4.375 0 0 0 1.25-3.062 4.3 4.3 0 0 0-1.25-3.062 4.235 4.235 0 0 0-3.062-1.294 4.164 4.164 0 0 0-3.062 1.294 4.164 4.164 0 0 0-1.294 3.062A4.235 4.235 0 0 0 2.846 8.97a3.589 3.589 0 0 0 1.121.819l-.043 1.639A5.881 5.881 0 0 1 5.908 0zm1.725 9.487L7.59 7.762c-.043-.129.043-.259.216-.3a1.459 1.459 0 0 0 .647-.992 3.844 3.844 0 0 0-.129-1.854c-.517-1.466-1.6-1.423-2.07 0a3.092 3.092 0 0 0-.174 1.852 1.353 1.353 0 0 0 .733.992c.129.043.172.129.172.3L6.9 9.746a3.676 3.676 0 0 1-.992.129A3.3 3.3 0 0 1 4.744 9.7l-.087-1.938A.236.236 0 0 1 4.83 7.5c1.035-.474.517-2.932.474-3.881a.158.158 0 0 0-.172-.172c-.086 0-.129.086-.129.172v2.07a.237.237 0 0 1-.474 0V3.622a.185.185 0 0 0-.172-.172.185.185 0 0 0-.172.172v2.07c0 .259-.474.259-.474 0v-2.07c0-.086-.043-.172-.129-.172a.158.158 0 0 0-.172.172c-.086.949-.561 3.45.517 3.881a.291.291 0 0 1 .172.259L4.01 9.4a2.982 2.982 0 0 1-.949-.69A3.989 3.989 0 0 1 5.908 1.9a3.976 3.976 0 0 1 3.967 4.01 3.946 3.946 0 0 1-1.164 2.8 3.125 3.125 0 0 1-1.078.777zm-.733.647-.086 1.6a6.369 6.369 0 0 1-.906.043 4.375 4.375 0 0 1-1.078-.086l-.086-1.6a5.353 5.353 0 0 0 1.164.129 7.7 7.7 0 0 0 .992-.086z" style="fill:#ffc610;fill-rule:evenodd"/>
    </g>
</svg>
