<svg xmlns="http://www.w3.org/2000/svg" width="12.166" height="11.773" viewBox="0 0 12.166 11.773">
    <path data-name="Icon awesome-hotel" d="M11.828 1.472a.354.354 0 0 0 .338-.368V.368A.354.354 0 0 0 11.828 0H.338A.354.354 0 0 0 0 .368V1.1a.354.354 0 0 0 .338.368h.337V10.3H.338a.354.354 0 0 0-.338.369v.731a.354.354 0 0 0 .338.368h5.069V9.933a.355.355 0 0 1 .338-.368h.676a.355.355 0 0 1 .338.368v1.839h5.069a.354.354 0 0 0 .338-.368v-.736a.354.354 0 0 0-.338-.368h-.338V1.472zM5.407 2.5a.3.3 0 0 1 .27-.294h.811a.3.3 0 0 1 .27.294v.883a.3.3 0 0 1-.27.294h-.811a.3.3 0 0 1-.27-.294V2.5zm0 2.207a.3.3 0 0 1 .27-.294h.811a.3.3 0 0 1 .27.294v.883a.3.3 0 0 1-.27.294h-.811a.3.3 0 0 1-.27-.294v-.881zM2.7 2.5a.3.3 0 0 1 .27-.294h.811a.3.3 0 0 1 .27.294v.883a.3.3 0 0 1-.27.294h-.807a.3.3 0 0 1-.27-.294zm1.085 3.386h-.811a.3.3 0 0 1-.27-.294v-.883a.3.3 0 0 1 .27-.294h.811a.3.3 0 0 1 .27.294v.883a.3.3 0 0 1-.27.294zm.27 2.943a2.123 2.123 0 0 1 2.028-2.207 2.123 2.123 0 0 1 2.028 2.207zm5.407-3.237a.3.3 0 0 1-.27.294h-.811a.3.3 0 0 1-.27-.294v-.883a.3.3 0 0 1 .27-.294h.811a.3.3 0 0 1 .27.294zm0-2.207a.3.3 0 0 1-.27.294h-.811a.3.3 0 0 1-.27-.294V2.5a.3.3 0 0 1 .27-.294h.811a.3.3 0 0 1 .27.294z" style="fill:#ffc610"/>
</svg>
