<svg xmlns="http://www.w3.org/2000/svg" width="14.327" height="14.327" viewBox="0 0 14.327 14.327">
    <path data-name="Path 16012" d="M5.065 0a5.065 5.065 0 1 0 5.065 5.065A5.067 5.067 0 0 0 5.065 0zm3.779 3.607-1.408.583A2.524 2.524 0 0 0 5.942 2.7l.583-1.408a4.033 4.033 0 0 1 2.319 2.315zM5.065 6.585a1.52 1.52 0 1 1 1.52-1.52 1.518 1.518 0 0 1-1.52 1.52zm-1.454-5.3.589 1.41A2.533 2.533 0 0 0 2.695 4.2l-1.408-.588a4.044 4.044 0 0 1 2.325-2.325zM1.287 6.519l1.408-.583a2.517 2.517 0 0 0 1.5 1.5l-.588 1.408a4.05 4.05 0 0 1-2.32-2.325zm5.237 2.325-.582-1.408a2.522 2.522 0 0 0 1.494-1.5l1.408.593a4.056 4.056 0 0 1-2.32 2.315z" transform="rotate(45 3.582 8.647)" style="fill:#00276c"/>
</svg>
