<svg xmlns="http://www.w3.org/2000/svg" width="64.791" height="32.527" viewBox="0 0 64.791 32.527">
    <g data-name="Group 1130">
        <text data-name="150" transform="translate(31.791 22.949)" style="fill:#00276c;font-size:20px;font-family:Poppins-Medium,Poppins;font-weight:500"><tspan x="0" y="0">150</tspan></text>
        <path data-name="Path 2917" d="M11.5 0A11.5 11.5 0 1 0 23 11.5 11.5 11.5 0 0 0 11.5 0zm8.579 8.188-3.2 1.322a5.729 5.729 0 0 0-3.393-3.381l1.322-3.2a9.157 9.157 0 0 1 5.271 5.259zM11.5 14.95a3.45 3.45 0 1 1 3.45-3.45 3.445 3.445 0 0 1-3.45 3.45zM8.2 2.921l1.346 3.2a5.75 5.75 0 0 0-3.428 3.412L2.921 8.2A9.182 9.182 0 0 1 8.2 2.921zM2.921 14.8l3.2-1.322a5.714 5.714 0 0 0 3.415 3.4l-1.345 3.2a9.2 9.2 0 0 1-5.27-5.278zm11.891 5.279-1.322-3.2a5.725 5.725 0 0 0 3.393-3.416l3.2 1.345a9.209 9.209 0 0 1-5.271 5.271z" transform="rotate(45 8.131 19.631)" style="fill:#ffc610"/>
    </g>
</svg>
