<svg xmlns="http://www.w3.org/2000/svg" width="8.652" height="8.034" viewBox="0 0 8.652 8.034">
    <path data-name="Icon ionic-ios-star" d="M10.574 6.156H7.733L6.87 3.58a.313.313 0 0 0-.587 0l-.864 2.576h-2.86a.31.31 0 0 0-.309.309.227.227 0 0 0 .006.052.3.3 0 0 0 .129.218L4.72 8.381l-.9 2.605a.31.31 0 0 0 .106.348.3.3 0 0 0 .174.075.379.379 0 0 0 .193-.07l2.283-1.623 2.279 1.624a.362.362 0 0 0 .193.07.277.277 0 0 0 .172-.075.306.306 0 0 0 .106-.348l-.9-2.605 2.32-1.662.056-.048a.3.3 0 0 0-.228-.516z" transform="translate(-2.25 -3.375)" style="fill:#00276c"/>
</svg>
